<svg width="512" height="512" viewBox="0 0 512 512" fill="none" xmlns="http://www.w3.org/2000/svg">
  <defs>
    <linearGradient id="g_outer" x1="128" y1="88" x2="382" y2="388" gradientUnits="userSpaceOnUse">
      <stop offset="0%" stop-color="#6EE7B7"/>
      <stop offset="55%" stop-color="#34D399"/>
      <stop offset="100%" stop-color="#10B981"/>
    </linearGradient>
    <linearGradient id="g_inner" x1="170" y1="132" x2="332" y2="330" gradientUnits="userSpaceOnUse">
      <stop offset="0%" stop-color="#0F3D3A"/>
      <stop offset="100%" stop-color="#0A2426"/>
    </linearGradient>
    <linearGradient id="g_needle" x1="168" y1="342" x2="382" y2="134" gradientUnits="userSpaceOnUse">
      <stop offset="0%" stop-color="#22C55E"/>
      <stop offset="100%" stop-color="#A7F3D0"/>
    </linearGradient>
    <radialGradient id="g_hub" cx="0" cy="0" r="1" gradientUnits="userSpaceOnUse"
      gradientTransform="translate(256 256) rotate(90) scale(38)">
      <stop offset="0%" stop-color="#A7F3D0"/>
      <stop offset="100%" stop-color="#34D399"/>
    </radialGradient>
  </defs>

  <!-- Outer signal ring -->
  <path d="M 335.52 133.55 A 146.00 146.00 0 1 1 183.00 129.56 L 210.00 176.33 A 92.00 92.00 0 1 0 306.11 178.84 Z" fill="url(#g_outer)"/>

  <!-- Inner core ring -->
  <path d="M 315.10 180.35 A 96.00 96.00 0 1 1 196.90 180.35 L 217.83 207.14 A 62.00 62.00 0 1 0 294.17 207.14 Z" fill="url(#g_inner)"/>

  <!-- Sweep / pointer -->
  <path d="M 131.56 338.98 L 312.65 228.96 L 381.80 116.29 L 276.97 196.84 L 160.47 371.08 L 114.80 383.13 Z" fill="url(#g_needle)"/>

  <!-- Hub -->
  <circle cx="256" cy="256" r="28" fill="url(#g_hub)"/>

  <!-- Tiny hub accent for crispness -->
  <circle cx="256" cy="256" r="8" fill="#D1FAE5" opacity="0.65"/>
</svg>
